<svg width="500" height="150.0" viewBox="0 0 500 150.0" fill="none" xmlns="http://www.w3.org/2000/svg" role="img">
  <style>
    .title-text {
      font: 600 18px Courier;
      fill: #2f80ed;
    }
    .descr-text {
      font: 400 13px Courier;
      fill: #434d58;
    }
    .star {
      stroke: #586069;
      stroke-width: 1.5;
      fill: "none";
    }
    .icon {
      fill: #586069;
    }
  </style>
  <rect data-testid="card edge" x="0.5" y="0.5" rx="4.5" ry="4.5" width="499.0" height="149.0" stroke="#E4E2E2" fill="#FFFEFE" stroke-opacity="1" />
  <g data-testid="title" transform="translate(25, 35)">
    <g data-testid="title-icon" transform="translate(0, 0)">
      <svg
        class="icon"
        x="0"
        y="-13"
        viewBox="0 0 16 16"
        version="1.1"
        width="16"
        height="16"
      >
        <path fill-rule="evenodd" d="M2 2.5A2.5 2.5 0 014.5 0h8.75a.75.75 0 01.75.75v12.5a.75.75 0 01-.75.75h-2.5a.75.75 0 110-1.5h1.75v-2h-8a1 1 0 00-.714 1.7.75.75 0 01-1.072 1.05A2.495 2.495 0 012 11.5v-9zm10.5-1V9h-8c-.356 0-.694.074-1 .208V2.5a1 1 0 011-1h8zM5 12.25v3.25a.25.25 0 00.4.2l1.45-1.087a.25.25 0 01.3 0L8.6 15.7a.25.25 0 00.4-.2v-3.25a.25.25 0 00-.25-.25h-3.5a.25.25 0 00-.25.25z"/>
      </svg>
    </g>
    <g data-testid="title-text" transform="translate(32, 0)">
      <text x="0" y="0" class="title-text">
        SimpleDecomp
      </text>
    </g>
  </g>
  <g data-testid="description" transform="translate(25, 67)">
    <text class="descr-text" x="0" y="0.0">Decompose 2D/3D structured meshes between multiple MPI</text>
    <text class="descr-text" x="0" y="26.0">processes in a pencil-like manner</text>
  </g>
  <g data-testid="language" transform="translate(25, 132.0)">
    <circle cx="5" cy="-5" r="8.0" fill="#555555" />
    <text class="descr-text" x="21" y="0">
      C
    </text>
  </g>
  <g data-testid="star" transform="translate(85.455, 132.0)">
    <g data-testid="star-icon" transform="translate(-15.0, -15.0)">
      <svg
        class="star"
        x="0"
        y="0"
        viewBox="0 0 20.0 20.0"
        version="1.1"
        width="20.0"
        height="20.0"
      >
        <path d="M  10.0  1.5  L  12.5  6.6  L  18.1  7.4  L  14.0  11.3  L  15.0  16.9  L  10.0  14.2  L  5.0  16.9  L  6.0  11.3  L  1.9  7.4  L  7.5  6.6 Z"/>
      </svg>
    </g>
    <g data-testid="star-text" transform="translate(16, 0)">
      <text class="descr-text">
        3
      </text>
    </g>
  </g>
  <g data-testid="date" transform="translate(140.91, 132.0)">
    <text class="descr-text">
      Last update: Mar 11 2023
    </text>
  </g>
</svg>
