<svg
  version="1.1"
  width="500"
  height="278"
  xmlns="http://www.w3.org/2000/svg"
  fill="none"
  role="img"
>

  <style>
    * {
      font-family: "Courier New";
    }
    <!-- stroke-width is not give here since it is used to decide svg size -->
    rect.border {
      stroke: #888888;
      fill: #ffffff;
    }
    rect.topic {
      stroke-width: 2.5;
      fill: #444444;
    }
    rect.lang {
      stroke-width: 2.5;
      fill: #ffffff;
    }
    text {
      dominant-baseline: middle;
      font-size: medium;
      font-weight: normal;
    }
    text.title {
      font-size: large;
      font-weight: bold;
      fill: #2f80ed;
    }
    text.descr {
      fill: #000000;
    }
    text.topic {
      fill: #ffffff;
    }
    path.star {
      stroke: #000000;
      stroke-width: 2;
      fill: #ffff00;
    }
  </style>

  <rect
    class="border"
    x="1"
    y="1"
    width="498"
    height="276"
    rx="10"
    ry="10"
    stroke-width="2"
  />

  <g id="title">
    <text
      class="title"
      x="18.21"
      y="30"
    >
      Collision
    </text>
  </g>

  <g id="description">
    <text
      class="descr"
      x="18.21"
      y="60"
    >
      Event-driven simulator of many colliding particl
    </text>
    <text
      class="descr"
      x="18.21"
      y="90"
    >
      es
    </text>
  </g>

  <g id="topics">
    <rect
      class="topic"
      x="18.21"
      y="108.8"
      width="203.952"
      height="22.4"
      rx="4"
      ry="4"
    />
    <text
      class="topic"
      fill="#ffffff"
      x="23.066000000000003"
      y="120"
    >
      collision-simulation
    </text>
    <rect
      class="topic"
      x="231.874"
      y="108.8"
      width="184.528"
      height="22.4"
      rx="4"
      ry="4"
    />
    <text
      class="topic"
      fill="#ffffff"
      x="236.73"
      y="120"
    >
      granular-mechanics
    </text>
    <rect
      class="topic"
      x="18.21"
      y="140.8"
      width="184.528"
      height="22.4"
      rx="4"
      ry="4"
    />
    <text
      class="topic"
      fill="#ffffff"
      x="23.066000000000003"
      y="152"
    >
      physics-simulation
    </text>
    <rect
      class="topic"
      x="212.45000000000002"
      y="140.8"
      width="67.984"
      height="22.4"
      rx="4"
      ry="4"
    />
    <text
      class="topic"
      fill="#ffffff"
      x="217.306"
      y="152"
    >
      webapp
    </text>
    <rect
      class="topic"
      x="290.146"
      y="140.8"
      width="116.544"
      height="22.4"
      rx="4"
      ry="4"
    />
    <text
      class="topic"
      fill="#ffffff"
      x="295.002"
      y="152"
    >
      webassembly
    </text>
  </g>

  <g id="langs">
    <rect
      class="lang"
      x="18.21"
      y="172.8"
      width="48.56"
      height="22.4"
      rx="4"
      ry="4"
      stroke="#dea584"
    />
    <text
      class="descr"
      x="23.066000000000003"
      y="184"
    >
      Rust
    </text>
    <rect
      class="lang"
      x="76.482"
      y="172.8"
      width="106.832"
      height="22.4"
      rx="4"
      ry="4"
      stroke="#3178c6"
    />
    <text
      class="descr"
      x="81.338"
      y="184"
    >
      TypeScript
    </text>
    <rect
      class="lang"
      x="193.026"
      y="172.8"
      width="48.56"
      height="22.4"
      rx="4"
      ry="4"
      stroke="#5686a5"
    />
    <text
      class="descr"
      x="197.882"
      y="184"
    >
      GLSL
    </text>
    <rect
      class="lang"
      x="251.298"
      y="172.8"
      width="48.56"
      height="22.4"
      rx="4"
      ry="4"
      stroke="#e34c26"
    />
    <text
      class="descr"
      x="256.154"
      y="184"
    >
      HTML
    </text>
    <rect
      class="lang"
      x="309.57"
      y="172.8"
      width="58.272"
      height="22.4"
      rx="4"
      ry="4"
      stroke="#89e051"
    />
    <text
      class="descr"
      x="314.426"
      y="184"
    >
      Shell
    </text>
    <rect
      class="lang"
      x="377.554"
      y="172.8"
      width="38.848"
      height="22.4"
      rx="4"
      ry="4"
      stroke="#563d7c"
    />
    <text
      class="descr"
      x="382.40999999999997"
      y="184"
    >
      CSS
    </text>
    <rect
      class="lang"
      x="18.21"
      y="204.8"
      width="106.832"
      height="22.4"
      rx="4"
      ry="4"
      stroke="#f1e05a"
    />
    <text
      class="descr"
      x="23.066000000000003"
      y="216"
    >
      JavaScript
    </text>
  </g>

  <g id="star">
    <path class="star" d="M 25.818452130361230 240.000000000000000  L 28.169593139531123 244.763932022500200  L 33.426904260722459 245.527864045000427  L 29.622678195541845 249.236067977499800  L 30.520734148701017 254.472135954999573  L 25.818452130361230 252.000000000000000  L 21.116170112021447 254.472135954999573  L 22.014226065180615 249.236067977499800  L 18.210000000000001 245.527864045000427  L 23.467311121191337 244.763932022500200 Z"/>
    <text
      class="descr"
      x="38.21"
      y="248"
    >
      6
    </text>
  </g>

  <g id="clock" stroke="#000000">
    <g id="outer">
      <path class="circle" d="M76.890000 248.000000 A6.400000 6.400000 0.000000 1 1 75.016273 243.475307" stroke-width="2.000000"/>
      <polygon class="triangle" points="72.752742 245.737258 77.278225 245.737258 77.278225 241.211775" fill="#000000"/>
    </g>
    <g id="inner">
      <line class="big" x1="70.49000000000001" y1="248.8" x2="70.49000000000001" y2="243.2" stroke-width="1.6"/>
      <line class="small" x1="69.69000000000001" y1="248" x2="73.69000000000001" y2="248" stroke-width="1.6"/>
    </g>
  </g>

  <g id="updated">
    <text
      class="descr"
      x="86.49000000000001"
      y="248"
    >
      5 March 2025
    </text>
  </g>

</svg>
