<svg
  version="1.1"
  width="500"
  height="278"
  xmlns="http://www.w3.org/2000/svg"
  fill="none"
  role="img"
>

  <style>
    * {
      font-family: "Courier New";
    }
    <!-- stroke-width is not give here since it is used to decide svg size -->
    rect.border {
      stroke: #888888;
      fill: #ffffff;
    }
    rect.topic {
      stroke-width: 2.5;
      fill: #444444;
    }
    rect.lang {
      stroke-width: 2.5;
      fill: #ffffff;
    }
    text {
      dominant-baseline: middle;
      font-size: medium;
      font-weight: normal;
    }
    text.title {
      font-size: large;
      font-weight: bold;
      fill: #2f80ed;
    }
    text.descr {
      fill: #000000;
    }
    text.topic {
      fill: #ffffff;
    }
    path.star {
      stroke: #000000;
      stroke-width: 2;
      fill: #ffff00;
    }
  </style>

  <rect
    class="border"
    x="1"
    y="1"
    width="498"
    height="276"
    rx="10"
    ry="10"
    stroke-width="2"
  />

  <g id="title">
    <text
      class="title"
      x="18.21"
      y="30"
    >
      Contour3D
    </text>
  </g>

  <g id="description">
    <text
      class="descr"
      x="18.21"
      y="60"
    >
      Library-independent streamlined 3D contouring fo
    </text>
    <text
      class="descr"
      x="18.21"
      y="90"
    >
      r massively-parallelized CFD simulations
    </text>
  </g>

  <g id="topics">
    <rect
      class="topic"
      x="18.21"
      y="108.8"
      width="174.816"
      height="22.4"
      rx="4"
      ry="4"
    />
    <text
      class="topic"
      fill="#ffffff"
      x="23.066000000000003"
      y="120"
    >
      computer-graphics
    </text>
    <rect
      class="topic"
      x="202.738"
      y="108.8"
      width="38.848"
      height="22.4"
      rx="4"
      ry="4"
    />
    <text
      class="topic"
      fill="#ffffff"
      x="207.594"
      y="120"
    >
      hpc
    </text>
    <rect
      class="topic"
      x="251.298"
      y="108.8"
      width="106.832"
      height="22.4"
      rx="4"
      ry="4"
    />
    <text
      class="topic"
      fill="#ffffff"
      x="256.154"
      y="120"
    >
      isosurface
    </text>
    <rect
      class="topic"
      x="18.21"
      y="140.8"
      width="194.24"
      height="22.4"
      rx="4"
      ry="4"
    />
    <text
      class="topic"
      fill="#ffffff"
      x="23.066000000000003"
      y="152"
    >
      marching-tetrahedra
    </text>
    <rect
      class="topic"
      x="222.162"
      y="140.8"
      width="135.968"
      height="22.4"
      rx="4"
      ry="4"
    />
    <text
      class="topic"
      fill="#ffffff"
      x="227.018"
      y="152"
    >
      visualization
    </text>
  </g>

  <g id="langs">
    <rect
      class="lang"
      x="18.21"
      y="172.8"
      width="19.424"
      height="22.4"
      rx="4"
      ry="4"
      stroke="#555555"
    />
    <text
      class="descr"
      x="23.066000000000003"
      y="184"
    >
      C
    </text>
    <rect
      class="lang"
      x="47.346"
      y="172.8"
      width="106.832"
      height="22.4"
      rx="4"
      ry="4"
      stroke="#3178c6"
    />
    <text
      class="descr"
      x="52.202"
      y="184"
    >
      TypeScript
    </text>
    <rect
      class="lang"
      x="163.89"
      y="172.8"
      width="48.56"
      height="22.4"
      rx="4"
      ry="4"
      stroke="#e34c26"
    />
    <text
      class="descr"
      x="168.74599999999998"
      y="184"
    >
      HTML
    </text>
    <rect
      class="lang"
      x="222.16199999999998"
      y="172.8"
      width="38.848"
      height="22.4"
      rx="4"
      ry="4"
      stroke="#563d7c"
    />
    <text
      class="descr"
      x="227.01799999999997"
      y="184"
    >
      CSS
    </text>
    <rect
      class="lang"
      x="270.722"
      y="172.8"
      width="87.408"
      height="22.4"
      rx="4"
      ry="4"
      stroke="#427819"
    />
    <text
      class="descr"
      x="275.578"
      y="184"
    >
      Makefile
    </text>
    <rect
      class="lang"
      x="18.21"
      y="204.8"
      width="106.832"
      height="22.4"
      rx="4"
      ry="4"
      stroke="#f1e05a"
    />
    <text
      class="descr"
      x="23.066000000000003"
      y="216"
    >
      JavaScript
    </text>
  </g>

  <g id="star">
    <path class="star" d="M 25.818452130361230 240.000000000000000  L 28.169593139531123 244.763932022500200  L 33.426904260722459 245.527864045000427  L 29.622678195541845 249.236067977499800  L 30.520734148701017 254.472135954999573  L 25.818452130361230 252.000000000000000  L 21.116170112021447 254.472135954999573  L 22.014226065180615 249.236067977499800  L 18.210000000000001 245.527864045000427  L 23.467311121191337 244.763932022500200 Z"/>
    <text
      class="descr"
      x="38.21"
      y="248"
    >
      5
    </text>
  </g>

  <g id="clock" stroke="#000000">
    <g id="outer">
      <path class="circle" d="M76.890000 248.000000 A6.400000 6.400000 0.000000 1 1 75.016273 243.475307" stroke-width="2.000000"/>
      <polygon class="triangle" points="72.752742 245.737258 77.278225 245.737258 77.278225 241.211775" fill="#000000"/>
    </g>
    <g id="inner">
      <line class="big" x1="70.49000000000001" y1="248.8" x2="70.49000000000001" y2="243.2" stroke-width="1.6"/>
      <line class="small" x1="69.69000000000001" y1="248" x2="73.69000000000001" y2="248" stroke-width="1.6"/>
    </g>
  </g>

  <g id="updated">
    <text
      class="descr"
      x="86.49000000000001"
      y="248"
    >
      5 March 2025
    </text>
  </g>

</svg>
